# File created by Blade
# Date/Time:  Wed Apr 08 17:24:36 2015
# Frame Rate: 120.000 fps
#------------------------------------------------------
:FULLY-SPECIFIED
:DEGREES
949
root 11.020689 38.460867 4.212374 182.697057 -36.623121 -136.441662
Spine -21.951729 9.848268 17.265167
Head -1.418216 0.034778 18.941055
LeftShoulder -5.208799 21.223725 23.187891
LeftArm 5.321808 -1.232599 -62.961965
LeftForeArm 7.670648 0.000000 7.521155
LeftHand -16.383972 -0.000000 -8.490847
LeftHandThumb1 -26.253704 0.000000 33.147579
RightShoulder -40.142516 -47.627665 27.083677
RightArm 51.920578 -6.501565 59.817082
RightForeArm 49.085070 0.000000 30.228219
RightHand -1.315166 -0.000000 16.011898
RightHandThumb1 -24.326973 -0.000000 -32.862282
LeftUpLeg -43.352125 31.663763 10.299049
LeftLeg 20.056433 -0.000000 -0.000000
LeftFoot -10.388995 19.778247 -1.196216
LeftToeBase 2.126782 -0.000000 -0.000000
RightUpLeg -110.283494 -26.967679 14.265466
RightLeg 148.015356 -0.000000 -0.000000
RightFoot 5.289844 9.108654 19.979746
RightToeBase -4.429981 -0.000000 0.000000
950
root 11.024290 38.462611 4.235041 182.946155 -36.296971 -136.561591
Spine -21.879776 9.936040 17.219847
Head -1.330361 0.052176 18.978735
LeftShoulder -5.288677 21.365200 23.123784
LeftArm 5.183287 -1.140195 -63.069459
LeftForeArm 7.723213 -0.000000 7.357694
LeftHand -16.351685 -0.000000 -8.499111
LeftHandThumb1 -26.253704 0.000000 33.147579
RightShoulder -40.208152 -47.646531 27.172648
RightArm 51.881010 -6.457384 59.884615
RightForeArm 49.146777 -0.000000 30.373098
RightHand -1.278042 -0.000000 15.979208
RightHandThumb1 -24.326973 -0.000000 -32.862282
LeftUpLeg -43.359548 31.776121 10.283315
LeftLeg 20.011140 -0.000000 -0.000000
LeftFoot -10.425071 19.977924 -1.300190
LeftToeBase 2.161615 -0.000000 -0.000000
RightUpLeg -110.354539 -26.954273 14.365174
RightLeg 148.038174 -0.000000 -0.000000
RightFoot 5.393776 9.104796 20.094411
RightToeBase -4.486015 -0.000000 0.000000
951
root 11.026756 38.465546 4.258871 183.191314 -35.982788 -136.677203
Spine -21.809401 9.995542 17.180185
Head -1.250734 0.086545 19.015632
LeftShoulder -5.382875 21.514766 23.070496
LeftArm 5.049100 -1.055089 -63.237333
LeftForeArm 7.705978 0.000000 7.256251
LeftHand -16.368602 -0.000000 -8.523814
LeftHandThumb1 -26.253704 0.000000 33.147579
RightShoulder -40.286140 -47.672100 27.278973
RightArm 51.869307 -6.384786 59.968917
RightForeArm 49.211680 -0.000000 30.471213
RightHand -1.445034 0.000000 16.429183
RightHandThumb1 -24.326973 -0.000000 -32.862282
LeftUpLeg -43.384537 31.897731 10.243947
LeftLeg 19.968067 -0.000000 -0.000000
LeftFoot -10.431320 20.169791 -1.354386
LeftToeBase 2.197905 -0.000000 -0.000000
RightUpLeg -110.372207 -26.986589 14.417806
RightLeg 148.070506 -0.000000 -0.000000
RightFoot 5.513487 9.211341 20.175006
RightToeBase -4.465636 -0.000000 0.000000
952
root 11.027565 38.469486 4.280165 183.411245 -35.681081 -136.780581
Spine -21.730675 10.037636 17.152678
Head -1.156032 0.135500 19.058363
LeftShoulder -5.444341 21.634072 23.016102
LeftArm 4.840754 -0.970123 -63.429707
LeftForeArm 7.755333 -0.000000 7.242482
LeftHand -16.428654 -0.000000 -8.496387
LeftHandThumb1 -26.253704 0.000000 33.147579
RightShoulder -40.375043 -47.651708 27.395535
RightArm 51.816925 -6.371839 59.946225
RightForeArm 49.328973 -0.000000 30.652698
RightHand -1.476089 0.000000 16.169364
RightHandThumb1 -24.326973 -0.000000 -32.862282
LeftUpLeg -43.407393 32.057632 10.186812
LeftLeg 19.919157 -0.000000 -0.000000
LeftFoot -10.440789 20.294584 -1.405063
LeftToeBase 2.229398 -0.000000 -0.000000
RightUpLeg -110.400599 -27.041209 14.521382
RightLeg 148.098971 -0.000000 -0.000000
RightFoot 5.715979 9.210286 20.317056
RightToeBase -4.506421 -0.000000 0.000000
